<?xml version="1.0" encoding="utf-8"?>
<!-- Generator: Adobe Illustrator 16.0.3, SVG Export Plug-In . SVG Version: 6.00 Build 0)  -->
<!DOCTYPE svg PUBLIC "-//W3C//DTD SVG 1.1//EN" "http://www.w3.org/Graphics/SVG/1.1/DTD/svg11.dtd">
<svg version="1.1" xmlns="http://www.w3.org/2000/svg" xmlns:xlink="http://www.w3.org/1999/xlink" x="0px" y="0px" width="229px"
	 height="201px" viewBox="0 0 229 201" enable-background="new 0 0 229 201" xml:space="preserve">
<g id="bg">
</g>
<g id="score_x2F_timeline">
</g>
<g id="camera">
</g>
<g id="menu">
	<g>
		<line fill="none" x1="52" y1="63" x2="52" y2="64"/>
		<rect x="0.576" y="0.446" opacity="0.48" fill="#343433" width="228" height="200.554"/>
		<rect y="1" opacity="0.7" fill="#231F20" width="228" height="25"/>
		<g>
			<path fill="#FFFFFF" d="M194.334,4.941c-4.322,0-7.826,3.503-7.826,7.825c0,1.843,0.641,3.532,1.707,4.867
				c0.432,0.539,0.656,1.403,0.262,1.912c-0.281,0.364-0.59,0.612-0.924,0.656c-1.092,0.146,0.4,1.451,2.953,0.456
				c0.645-0.251,1.646-0.351,2.324-0.216c0.484,0.098,0.988,0.149,1.504,0.149c4.322,0,7.826-3.503,7.826-7.824
				C202.16,8.444,198.656,4.941,194.334,4.941z"/>
		</g>
		<g>
			
				<line fill="none" stroke="#FFFFFF" stroke-width="2" stroke-linecap="round" stroke-miterlimit="10" x1="219.473" y1="8.94" x2="210.545" y2="17.867"/>
			<g>
				
					<line fill="none" stroke="#FFFFFF" stroke-width="2" stroke-linecap="round" stroke-miterlimit="10" x1="210.545" y1="8.94" x2="219.473" y2="17.867"/>
			</g>
		</g>
		<line fill="none" x1="51" y1="66" x2="51" y2="67"/>
		<g>
			<path fill="#FFFFFF" d="M176,14.249c0,1.703-1.006,3.084-2.5,3.084l0,0c-1.494,0-2.5-1.381-2.5-3.084V8.626
				c0-1.703,1.006-3.084,2.5-3.084l0,0c1.494,0,2.5,1.381,2.5,3.084V14.249z"/>
			<g>
				<path fill="none" stroke="#FFFFFF" stroke-linecap="round" stroke-miterlimit="10" d="M168,13.5h1.311
					c0,0,0.842,5.315,4.322,5.315"/>
				<path fill="none" stroke="#FFFFFF" stroke-linecap="round" stroke-miterlimit="10" d="M179,13.5h-0.992
					c0,0-1.002,5.315-4.48,5.315"/>
			</g>
			<path fill="#FFFFFF" d="M178,22.049c0,0.525-0.426,0.951-0.951,0.951h-6.098c-0.525,0-0.951-0.426-0.951-0.951v-0.098
				c0-0.525,0.426-0.951,0.951-0.951h6.098c0.525,0,0.951,0.426,0.951,0.951V22.049z"/>
			<line fill="none" stroke="#FFFFFF" stroke-linecap="round" stroke-miterlimit="10" x1="173.5" y1="19" x2="173.5" y2="21"/>
		</g>
		<rect x="105.516" y="9.061" fill="none" width="27.5" height="9.812"/>
		<text transform="matrix(1 0 0 1 105.5186 17.5801)" fill="#FFFFFF" font-family="'MyriadPro-Regular'" font-size="12">0:57</text>
		<circle fill="none" stroke="#FFFFFF" stroke-width="2" stroke-miterlimit="10" cx="151.733" cy="13.969" r="7.667"/>
		<rect x="149" y="12" fill="#FFFFFF" width="5" height="5"/>
		<path fill="none" stroke="#FFFFFF" stroke-width="2" stroke-miterlimit="10" d="M17.09,13.428"/>
		<g>
			<path fill="none" stroke="#FFFFFF" stroke-width="2" stroke-linecap="round" stroke-miterlimit="10" d="M13,9H7.686
				C7.088,9,6,9.271,6,9.985v8.94C6,19.641,7.088,21,7.686,21h9.498C17.781,21,18,19.641,18,18.926V14"/>
			<g>
				<path fill="none" stroke="#FFFFFF" stroke-width="2" stroke-linecap="round" stroke-miterlimit="10" d="M11.246,16.656
					c0,0,1.582-6.166,6.5-6.632"/>
				<g>
					<path fill="#FFFFFF" d="M17.826,12.406c-0.476,0.275-0.865,0.051-0.866-0.499l-0.002-0.938c-0.001-0.55-0.002-1.45-0.003-2
						L16.953,8.03c-0.001-0.55,0.388-0.775,0.865-0.501l0.812,0.468c0.478,0.274,1.258,0.724,1.734,0.997l0.812,0.468
						c0.477,0.273,0.479,0.724,0.002,1l-0.811,0.47c-0.477,0.276-1.255,0.728-1.73,1.003L17.826,12.406z"/>
				</g>
			</g>
		</g>
		<line fill="#FFFFFF" x1="78" y1="178" x2="78" y2="197"/>
		<line fill="#FFFFFF" x1="39" y1="178" x2="39" y2="197"/>
		<g>
			<circle fill="#FFFFFF" cx="50.585" cy="183.209" r="2.464"/>
			<path fill="#FFFFFF" d="M46.135,189.751c0,0-0.135-2.248,4.865-2.515c0,5.109,0,5.109,0,5.109S48.223,192.588,46.135,189.751z"/>
			<path fill="#FFFFFF" d="M55.865,189.751c0,0-0.865-2.248-4.865-2.515c0,5.109,0,5.109,0,5.109S53.777,192.588,55.865,189.751z"/>
			<circle fill="#FFFFFF" cx="58.252" cy="181.587" r="2.465"/>
			<path fill="#FFFFFF" d="M53.135,188.128c0,0,0.865-2.247,4.865-2.514c0,5.109,0,5.109,0,5.109S55.223,190.966,53.135,188.128z"/>
			<path fill="#FFFFFF" d="M62.867,188.128c0,0,0.133-2.247-4.867-2.514c0,5.109,0,5.109,0,5.109S60.777,190.966,62.867,188.128z"/>
			<circle fill="#FFFFFF" cx="64.918" cy="183.209" r="2.465"/>
			<path fill="#FFFFFF" d="M60.133,189.751c0,0-0.133-2.248,4.867-2.515c0,5.109,0,5.109,0,5.109S62.223,192.588,60.133,189.751z"/>
			<path fill="#FFFFFF" d="M69.865,189.751c0,0,0.135-2.248-4.865-2.515c0,5.109,0,5.109,0,5.109S67.775,192.588,69.865,189.751z"/>
		</g>
		<g>
			<rect x="10" y="179" fill="#FFFFFF" width="20" height="3"/>
			<rect x="10" y="185" fill="#FFFFFF" width="20" height="2"/>
			<rect x="10" y="191" fill="#FFFFFF" width="20" height="2"/>
		</g>
		<path fill="#FFFFFF" d="M98.457,175.169c-6.572,0-11.902,5.329-11.902,11.902c0,6.572,5.33,11.901,11.902,11.901
			s11.902-5.329,11.902-11.901C110.359,180.498,105.029,175.169,98.457,175.169z M95.752,190.23c0.611,0,1.232-0.127,1.635-0.323
			l0.207,0.795c-0.367,0.184-1.105,0.369-2.049,0.369c-2.186,0-3.832-1.382-3.832-3.926c0-2.428,1.646-4.074,4.051-4.074
			c0.967,0,1.578,0.207,1.842,0.346l-0.242,0.817c-0.379-0.186-0.92-0.323-1.564-0.323c-1.818,0-3.027,1.162-3.027,3.2
			C92.771,189.01,93.865,190.23,95.752,190.23z M104.109,184H102v7h-1v-7h-2.891l0,0H104.109L104.109,184z"/>
	</g>
</g>
<g id="chat">
</g>
<g id="logo" display="none">
</g>
<g id="Layer_7">
</g>
<g id="Layer_8">
</g>
<g id="Layer_9">
</g>
<g id="Layer_10">
</g>
<g id="Layer_11">
</g>
</svg>
