<?xml version="1.0" encoding="utf-8"?>
<!-- Generator: Adobe Illustrator 17.0.2, SVG Export Plug-In . SVG Version: 6.00 Build 0)  -->
<!DOCTYPE svg PUBLIC "-//W3C//DTD SVG 1.1//EN" "http://www.w3.org/Graphics/SVG/1.1/DTD/svg11.dtd">
<svg version="1.1" xmlns="http://www.w3.org/2000/svg" xmlns:xlink="http://www.w3.org/1999/xlink" x="0px" y="0px"
	 width="35.008px" height="30.5px" viewBox="0 0 35.008 30.5" enable-background="new 0 0 35.008 30.5" xml:space="preserve">
<g id="bg">
</g>
<g id="score_x2F_timeline">
</g>
<g id="camera">
</g>
<g id="menu">
	<path fill="#FFFFFF" d="M20.236,3.349c-6.573,0-11.901,5.329-11.901,11.901s5.329,11.901,11.901,11.901s11.901-5.329,11.901-11.901
		S26.809,3.349,20.236,3.349z M17.531,18.409c0.61,0,1.231-0.127,1.634-0.322l0.207,0.795c-0.368,0.184-1.105,0.368-2.049,0.368
		c-2.187,0-3.833-1.381-3.833-3.925c0-2.428,1.646-4.075,4.051-4.075c0.967,0,1.577,0.207,1.842,0.346l-0.242,0.817
		c-0.38-0.185-0.92-0.322-1.565-0.322c-1.818,0-3.027,1.162-3.027,3.2C14.55,17.189,15.644,18.409,17.531,18.409z M25.81,12.229
		h-2.371v6.906h-1.013v-6.906h-2.359v-0.852h5.743V12.229z"/>
</g>
<g id="chat">
</g>
<g id="logo" display="none">
</g>
</svg>
