<?xml version="1.0" encoding="utf-8"?>
<!-- Generator: Adobe Illustrator 16.0.3, SVG Export Plug-In . SVG Version: 6.00 Build 0)  -->
<!DOCTYPE svg PUBLIC "-//W3C//DTD SVG 1.1//EN" "http://www.w3.org/Graphics/SVG/1.1/DTD/svg11.dtd">
<svg version="1.1" xmlns="http://www.w3.org/2000/svg" xmlns:xlink="http://www.w3.org/1999/xlink" x="0px" y="0px" width="228px"
	 height="201px" viewBox="0 0 228 201" enable-background="new 0 0 228 201" xml:space="preserve">
<g id="bg">
</g>
<g id="score_x2F_timeline">
</g>
<g id="camera">
</g>
<g id="menu">
	<g>
		<rect x="-0.424" y="0.446" opacity="0.48" fill="#343433" width="228" height="200.554"/>
		<rect y="1" opacity="0.7" fill="#231F20" width="228" height="25"/>
		<line fill="none" x1="51" y1="66" x2="51" y2="67"/>
		<line fill="#FFFFFF" x1="75" y1="175" x2="75" y2="193"/>
		<line fill="#FFFFFF" x1="37" y1="175" x2="37" y2="193"/>
		<path fill="none" stroke="#FFFFFF" stroke-width="2" stroke-miterlimit="10" d="M16.408,13.428"/>
		<g>
			<path fill="none" stroke="#FFFFFF" stroke-width="2" stroke-linecap="round" stroke-miterlimit="10" d="M13,9H7.004
				C6.405,9,6,9.271,6,9.985v8.94C6,19.641,6.405,21,7.004,21h9.498C17.101,21,18,19.641,18,18.926V14"/>
			<g>
				<path fill="none" stroke="#FFFFFF" stroke-width="2" stroke-linecap="round" stroke-miterlimit="10" d="M10.564,16.656
					c0,0,1.583-6.166,6.501-6.632"/>
				<g>
					<path fill="#FFFFFF" d="M17.006,12.405C16.529,12.681,16,12.456,16,11.906v-0.938c0-0.55,0.136-1.45,0.135-2l0.067-0.938
						c-0.001-0.55,0.423-0.775,0.899-0.502l0.832,0.469c0.477,0.273,1.265,0.723,1.741,0.997l0.817,0.467
						c0.477,0.274,0.48,0.725,0.004,1l-0.811,0.471c-0.476,0.275-1.324,0.727-1.799,1.002L17.006,12.405z"/>
				</g>
			</g>
		</g>
		<g>
			<circle fill="#FFFFFF" cx="47.646" cy="179.557" r="2.465"/>
			<path fill="#FFFFFF" d="M43.135,186.099c0,0,0.865-2.247,4.865-2.514c0,5.108,0,5.108,0,5.108S45.223,188.937,43.135,186.099z"/>
			<path fill="#FFFFFF" d="M52.866,186.099c0,0,0.134-2.247-4.866-2.514c0,5.108,0,5.108,0,5.108S50.777,188.937,52.866,186.099z"/>
			<circle fill="#FFFFFF" cx="55.312" cy="177.936" r="2.464"/>
			<path fill="#FFFFFF" d="M51.134,184.477c0,0-0.134-2.247,4.866-2.514c0,5.109,0,5.109,0,5.109S53.223,187.314,51.134,184.477z"/>
			<path fill="#FFFFFF" d="M60.865,184.477c0,0,0.135-2.247-4.865-2.514c0,5.109,0,5.109,0,5.109S58.776,187.314,60.865,184.477z"/>
			<circle fill="#FFFFFF" cx="61.978" cy="179.557" r="2.464"/>
			<path fill="#FFFFFF" d="M58.135,186.099c0,0-0.135-2.247,4.865-2.514c0,5.108,0,5.108,0,5.108S60.224,188.937,58.135,186.099z"/>
			<path fill="#FFFFFF" d="M67.866,186.099c0,0-0.866-2.247-4.866-2.514c0,5.108,0,5.108,0,5.108S65.777,188.937,67.866,186.099z"/>
		</g>
		<g>
			<rect x="7" y="176" fill="#FFFFFF" width="21" height="2"/>
			<rect x="7" y="181" fill="#FFFFFF" width="21" height="3"/>
			<rect x="7" y="187" fill="#FFFFFF" width="21" height="2"/>
		</g>
		<g>
			<g>
				
					<text transform="matrix(1.0347 0 0 1 115.2383 16.6562)" fill="#FFFFFF" font-family="'RobotoCondensed-Regular'" font-size="10.4735">Chat</text>
			</g>
			<g>
				<path fill="#FFFFFF" d="M103.343,5.383c-4.322,0-7.825,3.504-7.825,7.825c0,1.843,0.64,3.532,1.707,4.867
					c0.432,0.54,0.655,1.403,0.26,1.913c-0.281,0.363-0.589,0.612-0.924,0.656c-1.091,0.146,0.399,1.451,2.953,0.455
					c0.646-0.251,1.647-0.351,2.325-0.215c0.485,0.098,0.988,0.149,1.504,0.149c4.321,0,7.826-3.503,7.826-7.825
					S107.664,5.383,103.343,5.383z"/>
			</g>
		</g>
		<circle fill="none" stroke="#FFFFFF" stroke-width="2" stroke-miterlimit="10" cx="213.165" cy="13.672" r="7.667"/>
		<rect x="211" y="12" fill="#FFFFFF" width="5" height="5"/>
	</g>
</g>
<g id="chat">
</g>
<g id="logo" display="none">
</g>
<g id="Layer_7">
</g>
<g id="Layer_8">
</g>
<g id="Layer_9">
</g>
<g id="Layer_10">
</g>
<g id="Layer_11">
</g>
</svg>
