<?xml version="1.0" encoding="utf-8"?>
<!-- Generator: Adobe Illustrator 16.0.3, SVG Export Plug-In . SVG Version: 6.00 Build 0)  -->
<!DOCTYPE svg PUBLIC "-//W3C//DTD SVG 1.1//EN" "http://www.w3.org/Graphics/SVG/1.1/DTD/svg11.dtd">
<svg version="1.1" xmlns="http://www.w3.org/2000/svg" xmlns:xlink="http://www.w3.org/1999/xlink" x="0px" y="0px" width="228px"
	 height="25px" viewBox="0 0 228 25" enable-background="new 0 0 228 25" xml:space="preserve">
<g id="bg">
</g>
<g id="score_x2F_timeline">
</g>
<g id="camera">
</g>
<g id="menu">
	<g>
		<rect opacity="0.7" fill="#231F20" width="228" height="25"/>
		<g>
			<path fill="none" stroke="#FFFFFF" stroke-width="2" stroke-linecap="round" stroke-miterlimit="10" d="M14,8H8.06
				C7.462,8,7,8.166,7,8.88v8.94C7,18.534,7.462,19,8.06,19h9.498C18.155,19,19,18.534,19,17.82V13"/>
			<g>
				<path fill="none" stroke="#FFFFFF" stroke-width="2" stroke-linecap="round" stroke-miterlimit="10" d="M11.62,15.551
					c0,0,1.582-6.166,6.5-6.632"/>
				<g>
					<path fill="#FFFFFF" d="M18.2,11.3c-0.476,0.275-0.866,0.051-0.866-0.499l-0.002-0.938c0-0.55-0.002-1.45-0.003-2l-0.002-0.938
						c-0.001-0.55,0.388-0.775,0.865-0.501l0.812,0.467c0.478,0.274,1.257,0.724,1.734,0.998l0.812,0.467
						c0.478,0.274,0.478,0.725,0.002,1.001l-0.811,0.47c-0.476,0.276-1.255,0.728-1.73,1.003L18.2,11.3z"/>
				</g>
			</g>
		</g>
		<g>
			<g>
				
					<text transform="matrix(1.0347 0 0 1 116.293 15.5508)" fill="#FFFFFF" font-family="'RobotoCondensed-Regular'" font-size="10.4735">Chat</text>
			</g>
			<g>
				<path fill="#FFFFFF" d="M104.399,4.278c-4.324,0-7.826,3.503-7.826,7.824c0,1.843,0.641,3.532,1.707,4.867
					c0.432,0.54,0.654,1.403,0.26,1.913c-0.281,0.364-0.59,0.612-0.924,0.656c-1.09,0.146,0.4,1.451,2.953,0.455
					c0.645-0.251,1.646-0.351,2.326-0.216c0.484,0.099,0.988,0.15,1.504,0.15c4.32,0,7.824-3.503,7.824-7.825
					S108.72,4.278,104.399,4.278z"/>
			</g>
		</g>
		<circle fill="none" stroke="#FFFFFF" stroke-width="2" stroke-miterlimit="10" cx="214.221" cy="12.566" r="7.667"/>
		<rect x="212" y="10" fill="#FFFFFF" width="5" height="5"/>
	</g>
</g>
<g id="chat">
</g>
<g id="logo" display="none">
</g>
<g id="Layer_7">
</g>
<g id="Layer_8">
</g>
<g id="Layer_9">
</g>
<g id="Layer_10">
</g>
<g id="Layer_11">
</g>
</svg>
