<?xml version="1.0" encoding="utf-8"?>
<!-- Generator: Adobe Illustrator 16.0.3, SVG Export Plug-In . SVG Version: 6.00 Build 0)  -->
<!DOCTYPE svg PUBLIC "-//W3C//DTD SVG 1.1//EN" "http://www.w3.org/Graphics/SVG/1.1/DTD/svg11.dtd">
<svg version="1.1" xmlns="http://www.w3.org/2000/svg" xmlns:xlink="http://www.w3.org/1999/xlink" x="0px" y="0px" width="228px"
	 height="59px" viewBox="0 0 228 59" enable-background="new 0 0 228 59" xml:space="preserve">
<g id="bg">
</g>
<g id="score_x2F_timeline">
</g>
<g id="camera">
</g>
<g id="menu">
	<g>
		<rect opacity="0.7" fill="#231F20" width="228" height="25"/>
		<g>
			<path fill="#FFFFFF" d="M194.15,3.541c-4.322,0-7.826,3.504-7.826,7.824c0,1.844,0.641,3.533,1.707,4.867
				c0.432,0.54,0.655,1.404,0.261,1.913c-0.281,0.364-0.59,0.612-0.925,0.657c-1.09,0.146,0.4,1.451,2.955,0.455
				c0.643-0.252,1.646-0.352,2.324-0.216c0.484,0.099,0.988,0.149,1.504,0.149c4.321,0,7.826-3.503,7.826-7.824
				C201.977,7.045,198.472,3.541,194.15,3.541z"/>
		</g>
		<g>
			
				<line fill="none" stroke="#FFFFFF" stroke-width="2" stroke-linecap="round" stroke-miterlimit="10" x1="219.288" y1="7.541" x2="210.361" y2="16.467"/>
			<g>
				
					<line fill="none" stroke="#FFFFFF" stroke-width="2" stroke-linecap="round" stroke-miterlimit="10" x1="210.361" y1="7.541" x2="219.288" y2="16.467"/>
			</g>
		</g>
		<g>
			<path fill="#FFFFFF" d="M176,12.85c0,1.702-1.005,3.083-2.499,3.083l0,0c-1.494,0-2.501-1.381-2.501-3.083V7.226
				c0-1.703,1.007-3.084,2.501-3.084l0,0c1.494,0,2.499,1.381,2.499,3.084V12.85z"/>
			<g>
				<path fill="none" stroke="#FFFFFF" stroke-linecap="round" stroke-miterlimit="10" d="M168,12.5h1.126
					c0,0,0.936,5.315,4.414,5.315"/>
				<path fill="none" stroke="#FFFFFF" stroke-linecap="round" stroke-miterlimit="10" d="M179,12.5h-1.176
					c0,0-0.91,5.315-4.39,5.315"/>
			</g>
			<path fill="#FFFFFF" d="M178,20.05c0,0.524-0.426,0.95-0.95,0.95h-6.1c-0.524,0-0.95-0.426-0.95-0.95v-0.1
				c0-0.524,0.426-0.95,0.95-0.95h6.1c0.524,0,0.95,0.426,0.95,0.95V20.05z"/>
			<line fill="none" stroke="#FFFFFF" stroke-linecap="round" stroke-miterlimit="10" x1="173.5" y1="17" x2="173.5" y2="19"/>
		</g>
		<rect x="105.332" y="7.66" fill="none" width="27.5" height="9.812"/>
		<text transform="matrix(1 0 0 1 105.334 16.1787)" fill="#FFFFFF" font-family="'MyriadPro-Regular'" font-size="12">0:57</text>
		<g>
			<circle fill="none" stroke="#FFFFFF" stroke-width="2" stroke-miterlimit="10" cx="151.548" cy="12.568" r="7.667"/>
			<rect x="149" y="10" fill="#FFFFFF" width="5" height="6"/>
		</g>
		<g>
			<path fill="none" stroke="#FFFFFF" stroke-width="2" stroke-linecap="round" stroke-miterlimit="10" d="M13,8H7.501
				C6.902,8,6,7.871,6,8.585v8.94C6,18.24,6.902,19,7.501,19h9.498C17.598,19,18,18.24,18,17.525V13"/>
			<g>
				<path fill="none" stroke="#FFFFFF" stroke-width="2" stroke-linecap="round" stroke-miterlimit="10" d="M11.061,15.256
					c0,0,1.584-6.166,6.502-6.632"/>
				<g>
					<path fill="#FFFFFF" d="M17.643,11.005c-0.476,0.275-0.866,0.051-0.867-0.499l-0.002-0.938c-0.001-0.55-0.002-1.45-0.003-2
						l-0.002-0.938c-0.001-0.55,0.39-0.775,0.866-0.501l0.812,0.467c0.477,0.274,1.258,0.724,1.734,0.998l0.812,0.467
						c0.477,0.274,0.478,0.725,0.002,1l-0.812,0.471c-0.476,0.275-1.255,0.727-1.73,1.002L17.643,11.005z"/>
				</g>
			</g>
		</g>
		<rect x="-0.244" y="24.234" opacity="0.48" fill="#343433" width="228" height="34.766"/>
		<line fill="#FFFFFF" x1="75" y1="33" x2="75" y2="51"/>
		<line fill="#FFFFFF" x1="37" y1="33" x2="37" y2="51"/>
		<g>
			<circle fill="#FFFFFF" cx="47.994" cy="37.755" r="2.465"/>
			<path fill="#FFFFFF" d="M43.135,44.297c0,0-0.135-2.247,4.865-2.514c0,5.108,0,5.108,0,5.108S45.223,47.135,43.135,44.297z"/>
			<path fill="#FFFFFF" d="M52.865,44.297c0,0,0.135-2.247-4.865-2.514c0,5.108,0,5.108,0,5.108S50.777,47.135,52.865,44.297z"/>
			<circle fill="#FFFFFF" cx="55.661" cy="36.133" r="2.464"/>
			<path fill="#FFFFFF" d="M51.134,42.675c0,0-0.134-2.247,4.866-2.515c0,5.109,0,5.109,0,5.109S53.223,45.512,51.134,42.675z"/>
			<path fill="#FFFFFF" d="M60.865,42.675c0,0-0.865-2.247-4.865-2.515c0,5.109,0,5.109,0,5.109S58.776,45.512,60.865,42.675z"/>
			<circle fill="#FFFFFF" cx="62.327" cy="37.755" r="2.464"/>
			<path fill="#FFFFFF" d="M57.134,44.297c0,0,0.866-2.247,4.866-2.514c0,5.108,0,5.108,0,5.108S59.223,47.135,57.134,44.297z"/>
			<path fill="#FFFFFF" d="M66.865,44.297c0,0,0.135-2.247-4.865-2.514c0,5.108,0,5.108,0,5.108S64.776,47.135,66.865,44.297z"/>
		</g>
		<g>
			<rect x="7" y="34" fill="#FFFFFF" width="21" height="2"/>
			<rect x="7" y="39" fill="#FFFFFF" width="21" height="3"/>
			<rect x="7" y="45" fill="#FFFFFF" width="21" height="2"/>
		</g>
		<path fill="#FFFFFF" d="M95.865,29.716c-6.572,0-11.901,5.328-11.901,11.901c0,6.572,5.329,11.901,11.901,11.901
			c6.574,0,11.902-5.329,11.902-11.901C107.768,35.044,102.439,29.716,95.865,29.716z M93.161,44.776
			c0.61,0,1.231-0.126,1.635-0.322l0.207,0.794c-0.368,0.185-1.104,0.369-2.049,0.369c-2.187,0-3.833-1.381-3.833-3.925
			c0-2.429,1.646-4.075,4.051-4.075c0.968,0,1.578,0.207,1.842,0.346l-0.241,0.817c-0.38-0.185-0.921-0.322-1.565-0.322
			c-1.818,0-3.027,1.162-3.027,3.199C90.18,43.557,91.273,44.776,93.161,44.776z M101,39h-2v7h-1v-7h-2v-1h5V39z"/>
	</g>
</g>
<g id="chat">
</g>
<g id="logo" display="none">
</g>
<g id="Layer_7">
</g>
<g id="Layer_8">
</g>
<g id="Layer_9">
</g>
<g id="Layer_10">
</g>
<g id="Layer_11">
</g>
</svg>
