<?xml version="1.0" encoding="utf-8"?>
<!-- Generator: Adobe Illustrator 16.0.3, SVG Export Plug-In . SVG Version: 6.00 Build 0)  -->
<!DOCTYPE svg PUBLIC "-//W3C//DTD SVG 1.1//EN" "http://www.w3.org/Graphics/SVG/1.1/DTD/svg11.dtd">
<svg version="1.1" xmlns="http://www.w3.org/2000/svg" xmlns:xlink="http://www.w3.org/1999/xlink" x="0px" y="0px" width="228px"
	 height="201px" viewBox="0 0 228 201" enable-background="new 0 0 228 201" xml:space="preserve">
<g id="bg">
</g>
<g id="score_x2F_timeline">
</g>
<g id="camera">
</g>
<g id="menu">
	<g>
		<rect x="-0.417" y="0.445" opacity="0.48" fill="#343433" width="228" height="200.555"/>
		<rect y="1" opacity="0.7" fill="#231F20" width="228" height="25"/>
		<line fill="none" x1="51" y1="66" x2="51" y2="67"/>
		<line fill="#FFFFFF" x1="75" y1="175" x2="75" y2="193"/>
		<line fill="#FFFFFF" x1="37" y1="175" x2="37" y2="193"/>
		<path fill="none" stroke="#FFFFFF" stroke-width="2" stroke-miterlimit="10" d="M16.414,13.428"/>
		<g>
			<path fill="none" stroke="#FFFFFF" stroke-width="2" stroke-linecap="round" stroke-miterlimit="10" d="M13,9H7.01
				C6.412,9,6,9.271,6,9.984v8.941C6,19.641,6.412,21,7.01,21h9.498C17.106,21,18,19.641,18,18.926V14"/>
			<g>
				<path fill="none" stroke="#FFFFFF" stroke-width="2" stroke-linecap="round" stroke-miterlimit="10" d="M10.57,16.656
					c0,0,1.584-6.166,6.501-6.633"/>
				<g>
					<path fill="#FFFFFF" d="M17.151,12.405c-0.476,0.275-0.866,0.051-0.867-0.499l-0.002-0.938c-0.001-0.55-0.003-1.45-0.003-2
						l-0.002-0.938c-0.002-0.55,0.388-0.775,0.865-0.502l0.814,0.469c0.477,0.273,1.256,0.723,1.732,0.997l0.814,0.467
						c0.477,0.274,0.477,0.725,0.001,1l-0.812,0.471c-0.477,0.275-1.254,0.727-1.73,1.002L17.151,12.405z"/>
				</g>
			</g>
		</g>
		<g>
			<circle fill="#FFFFFF" cx="47.652" cy="179.557" r="2.464"/>
			<path fill="#FFFFFF" d="M43.135,186.098c0,0-0.135-2.246,4.865-2.514c0,5.109,0,5.109,0,5.109S45.224,188.936,43.135,186.098z"/>
			<path fill="#FFFFFF" d="M52.866,186.098c0,0,0.134-2.246-4.866-2.514c0,5.109,0,5.109,0,5.109S50.777,188.936,52.866,186.098z"/>
			<circle fill="#FFFFFF" cx="55.318" cy="177.936" r="2.464"/>
			<path fill="#FFFFFF" d="M51.134,184.477c0,0-0.134-2.248,4.866-2.514c0,5.109,0,5.109,0,5.109S53.223,187.314,51.134,184.477z"/>
			<path fill="#FFFFFF" d="M60.865,184.477c0,0,0.135-2.248-4.865-2.514c0,5.109,0,5.109,0,5.109S58.777,187.314,60.865,184.477z"/>
			<circle fill="#FFFFFF" cx="61.984" cy="179.557" r="2.465"/>
			<path fill="#FFFFFF" d="M57.135,186.098c0,0,0.865-2.246,4.865-2.514c0,5.109,0,5.109,0,5.109S59.223,188.936,57.135,186.098z"/>
			<path fill="#FFFFFF" d="M66.865,186.098c0,0,0.135-2.246-4.865-2.514c0,5.109,0,5.109,0,5.109S64.776,188.936,66.865,186.098z"/>
		</g>
		<g>
			<rect x="7" y="176" fill="#FFFFFF" width="21" height="2"/>
			<rect x="7" y="181" fill="#FFFFFF" width="21" height="3"/>
			<rect x="7" y="187" fill="#FFFFFF" width="21" height="2"/>
		</g>
		<circle fill="none" stroke="#BE1E2D" stroke-width="2" stroke-miterlimit="10" cx="213.171" cy="13.672" r="7.667"/>
		<rect x="211" y="12" fill="#BE1E2D" width="5" height="5"/>
		<rect x="99.515" y="8.766" fill="none" width="27.5" height="9.812"/>
		<text transform="matrix(1 0 0 1 99.5166 17.2861)" fill="#FFFFFF" font-family="'MyriadPro-Regular'" font-size="12">0:57</text>
	</g>
</g>
<g id="chat">
</g>
<g id="logo" display="none">
</g>
<g id="Layer_7">
</g>
<g id="Layer_8">
</g>
<g id="Layer_9">
</g>
<g id="Layer_10">
</g>
<g id="Layer_11">
</g>
</svg>
