<?xml version="1.0" encoding="utf-8"?>
<!-- Generator: Adobe Illustrator 17.0.2, SVG Export Plug-In . SVG Version: 6.00 Build 0)  -->
<!DOCTYPE svg PUBLIC "-//W3C//DTD SVG 1.1//EN" "http://www.w3.org/Graphics/SVG/1.1/DTD/svg11.dtd">
<svg version="1.1" xmlns="http://www.w3.org/2000/svg" xmlns:xlink="http://www.w3.org/1999/xlink" x="0px" y="0px"
	 width="35.008px" height="30.5px" viewBox="0 0 35.008 30.5" enable-background="new 0 0 35.008 30.5" xml:space="preserve">
<g id="bg">
</g>
<g id="score_x2F_timeline">
</g>
<g id="camera">
</g>
<g id="menu">
	<g>
		<g>
			<defs>
				<polyline id="SVGID_31_" points="8.749,8.819 17.519,15.778 26.258,8.819 				"/>
			</defs>
			<clipPath id="SVGID_2_">
				<use xlink:href="#SVGID_31_"  overflow="visible"/>
			</clipPath>
			<path clip-path="url(#SVGID_2_)" fill="#FFFFFF" d="M26.515,20.21c0,0.944-0.758,1.709-1.694,1.709H10.217
				c-0.936,0-1.694-0.765-1.694-1.709v-9.682c0-0.944,0.758-1.709,1.694-1.709h14.603c0.936,0,1.694,0.765,1.694,1.709V20.21z"/>
		</g>
		<path fill="#FFFFFF" d="M26.699,9.435l-9.195,7.259l-9.21-7.246C7.844,9.79,7.55,10.325,7.55,10.934v10.623
			c0,1.035,0.839,1.875,1.875,1.875h16.159c1.035,0,1.875-0.839,1.875-1.875V10.934C27.458,10.318,27.157,9.777,26.699,9.435z"/>
	</g>
</g>
<g id="chat">
</g>
<g id="logo" display="none">
</g>
</svg>
