<?xml version="1.0" encoding="utf-8"?>
<!-- Generator: Adobe Illustrator 17.0.2, SVG Export Plug-In . SVG Version: 6.00 Build 0)  -->
<!DOCTYPE svg PUBLIC "-//W3C//DTD SVG 1.1//EN" "http://www.w3.org/Graphics/SVG/1.1/DTD/svg11.dtd">
<svg version="1.1" xmlns="http://www.w3.org/2000/svg" xmlns:xlink="http://www.w3.org/1999/xlink" x="0px" y="0px"
	 width="35.008px" height="30.5px" viewBox="0 0 35.008 30.5" enable-background="new 0 0 35.008 30.5" xml:space="preserve">
<g id="bg">
</g>
<g id="score_x2F_timeline">
</g>
<g id="camera">
</g>
<g id="menu">
	<g>
		<path fill="#FFFFFF" d="M17.504,4.951c-4.323,0-7.826,3.503-7.826,7.825c0,1.843,0.64,3.532,1.707,4.867
			c0.432,0.54,0.656,1.403,0.261,1.912c-0.281,0.364-0.59,0.613-0.924,0.657c-1.09,0.146,0.4,1.451,2.954,0.455
			c0.644-0.251,1.646-0.35,2.325-0.216c0.485,0.098,0.988,0.15,1.504,0.15c4.321,0,7.826-3.503,7.826-7.825
			C25.33,8.454,21.825,4.951,17.504,4.951z"/>
	</g>
</g>
<g id="chat">
</g>
<g id="logo" display="none">
</g>
</svg>
