<?xml version="1.0" encoding="utf-8"?>
<!-- Generator: Adobe Illustrator 17.0.2, SVG Export Plug-In . SVG Version: 6.00 Build 0)  -->
<!DOCTYPE svg PUBLIC "-//W3C//DTD SVG 1.1//EN" "http://www.w3.org/Graphics/SVG/1.1/DTD/svg11.dtd">
<svg version="1.1" xmlns="http://www.w3.org/2000/svg" xmlns:xlink="http://www.w3.org/1999/xlink" x="0px" y="0px"
	 width="35.008px" height="30.5px" viewBox="0 0 35.008 30.5" enable-background="new 0 0 35.008 30.5" xml:space="preserve">
<g id="bg">
</g>
<g id="score_x2F_timeline">
</g>
<g id="camera">
</g>
<g id="menu">
	<g>
		<path fill="#FFFFFF" d="M20.244,15.806c0,1.703-1.212,3.084-2.706,3.084l0,0c-1.494,0-2.706-1.381-2.706-3.084v-5.624
			c0-1.703,1.212-3.084,2.706-3.084l0,0c1.494,0,2.706,1.381,2.706,3.084V15.806z"/>
		<g>
			<path fill="none" stroke="#FFFFFF" stroke-width="0.75" stroke-linecap="round" stroke-miterlimit="10" d="M11.898,14.815h1.256
				c0,0,0.87,5.316,4.349,5.316"/>
			<path fill="none" stroke="#FFFFFF" stroke-width="0.75" stroke-linecap="round" stroke-miterlimit="10" d="M23.109,14.815h-1.256
				c0,0-0.87,5.316-4.349,5.316"/>
		</g>
		<path fill="#FFFFFF" d="M21.677,22.659c0,0.525-0.425,0.95-0.95,0.95H14.67c-0.525,0-0.95-0.425-0.95-0.95l0,0
			c0-0.525,0.425-0.95,0.95-0.95h6.057C21.252,21.709,21.677,22.134,21.677,22.659L21.677,22.659z"/>
		
			<line fill="none" stroke="#FFFFFF" stroke-width="0.75" stroke-linecap="round" stroke-miterlimit="10" x1="17.504" y1="20.124" x2="17.504" y2="21.709"/>
	</g>
</g>
<g id="chat">
</g>
<g id="logo" display="none">
</g>
</svg>
