<?xml version="1.0" encoding="utf-8"?>
<!-- Generator: Adobe Illustrator 16.0.3, SVG Export Plug-In . SVG Version: 6.00 Build 0)  -->
<!DOCTYPE svg PUBLIC "-//W3C//DTD SVG 1.1//EN" "http://www.w3.org/Graphics/SVG/1.1/DTD/svg11.dtd">
<svg version="1.1" xmlns="http://www.w3.org/2000/svg" xmlns:xlink="http://www.w3.org/1999/xlink" x="0px" y="0px" width="228px"
	 height="201px" viewBox="0 0 228 201" enable-background="new 0 0 228 201" xml:space="preserve">
<g id="bg">
</g>
<g id="score_x2F_timeline">
</g>
<g id="camera">
</g>
<g id="menu">
	<g>
		<rect x="-0.368" y="-0.025" opacity="0.48" fill="#343433" width="228.001" height="200.555"/>
		<rect opacity="0.7" fill="#231F20" width="228" height="25"/>
		<line fill="none" x1="51" y1="65" x2="51" y2="66"/>
		<line fill="#FFFFFF" x1="75" y1="174" x2="75" y2="192"/>
		<line fill="#FFFFFF" x1="37" y1="174" x2="37" y2="192"/>
		<path fill="none" stroke="#FFFFFF" stroke-width="2" stroke-miterlimit="10" d="M16.781,12.957"/>
		<g>
			<path fill="none" stroke="#FFFFFF" stroke-width="2" stroke-linecap="round" stroke-miterlimit="10" d="M13,8H7.377
				C6.779,8,7,8.801,7,9.515v8.94C7,19.17,6.779,20,7.377,20h9.498C17.474,20,18,19.17,18,18.455V13"/>
			<g>
				<path fill="none" stroke="#FFFFFF" stroke-width="2" stroke-linecap="round" stroke-miterlimit="10" d="M10.938,16.186
					c0,0,1.584-6.166,6.501-6.633"/>
				<g>
					<path fill="#FFFFFF" d="M17.693,11.935C17.217,12.21,17,11.985,17,11.436v-0.938c0-0.55,0-1.45,0-2V7.561
						c0-0.55,0.211-0.775,0.688-0.502l0.725,0.468c0.478,0.273,1.213,0.723,1.689,0.997l0.792,0.468
						c0.477,0.274,0.466,0.725-0.011,1l-0.816,0.471c-0.476,0.275-1.171,0.727-1.646,1.002L17.693,11.935z"/>
				</g>
			</g>
		</g>
		<g>
			<circle fill="#FFFFFF" cx="48.019" cy="179.086" r="2.464"/>
			<path fill="#FFFFFF" d="M44.134,185.629c0,0-0.134-2.248,4.866-2.516c0,5.109,0,5.109,0,5.109S46.223,188.465,44.134,185.629z"/>
			<path fill="#FFFFFF" d="M53.865,185.629c0,0-0.865-2.248-4.865-2.516c0,5.109,0,5.109,0,5.109S51.777,188.465,53.865,185.629z"/>
			<circle fill="#FFFFFF" cx="55.686" cy="177.465" r="2.465"/>
			<path fill="#FFFFFF" d="M51.135,184.006c0,0-0.135-2.246,4.865-2.514c0,5.109,0,5.109,0,5.109S53.224,186.844,51.135,184.006z"/>
			<path fill="#FFFFFF" d="M60.866,184.006c0,0,0.134-2.246-4.866-2.514c0,5.109,0,5.109,0,5.109S58.777,186.844,60.866,184.006z"/>
			<circle fill="#FFFFFF" cx="62.352" cy="179.086" r="2.464"/>
			<path fill="#FFFFFF" d="M58.134,185.629c0,0-0.134-2.248,4.866-2.516c0,5.109,0,5.109,0,5.109S60.223,188.465,58.134,185.629z"/>
			<path fill="#FFFFFF" d="M67.865,185.629c0,0,0.135-2.248-4.865-2.516c0,5.109,0,5.109,0,5.109S65.777,188.465,67.865,185.629z"/>
		</g>
		<g>
			<rect x="8" y="175" fill="#FFFFFF" width="20" height="2"/>
			<rect x="8" y="180" fill="#FFFFFF" width="20" height="3"/>
			<rect x="8" y="186" fill="#FFFFFF" width="20" height="2"/>
		</g>
		<path fill="#FFFFFF" d="M95.891,171.047c-6.573,0-11.901,5.328-11.901,11.902c0,6.572,5.328,11.9,11.901,11.9
			c6.572,0,11.901-5.328,11.901-11.9C107.792,176.375,102.463,171.047,95.891,171.047z M93.186,186.107
			c0.61,0,1.231-0.127,1.635-0.322l0.207,0.795c-0.368,0.184-1.104,0.369-2.049,0.369c-2.188,0-3.833-1.383-3.833-3.926
			c0-2.428,1.646-4.074,4.052-4.074c0.967,0,1.577,0.207,1.842,0.346l-0.242,0.816c-0.38-0.184-0.92-0.322-1.565-0.322
			c-1.817,0-3.026,1.162-3.026,3.199C90.205,184.887,91.299,186.107,93.186,186.107z M102,180h-3v7h-1v-7h-2v-1h6V180z"/>
		<g>
			<path fill="#FFFFFF" d="M195.484,4.4c-4.323,0-7.827,3.504-7.827,7.825c0,1.843,0.642,3.532,1.708,4.867
				c0.432,0.54,0.654,1.403,0.26,1.913c-0.281,0.363-0.59,0.612-0.924,0.656c-1.09,0.146,0.4,1.451,2.953,0.455
				c0.645-0.251,1.646-0.351,2.326-0.215c0.484,0.098,0.988,0.149,1.504,0.149c4.32,0,7.825-3.503,7.825-7.825
				S199.805,4.4,195.484,4.4z"/>
		</g>
		<g>
			
				<line fill="none" stroke="#FFFFFF" stroke-width="2" stroke-linecap="round" stroke-miterlimit="10" x1="220.622" y1="8.4" x2="211.695" y2="17.326"/>
			<g>
				
					<line fill="none" stroke="#FFFFFF" stroke-width="2" stroke-linecap="round" stroke-miterlimit="10" x1="211.695" y1="8.4" x2="220.622" y2="17.326"/>
			</g>
		</g>
		<g>
			<path fill="#FFFFFF" d="M178,13.709c0,1.703-1.506,3.084-3,3.084l0,0c-1.495,0-3-1.381-3-3.084V8.085
				c0-1.702,1.505-3.083,3-3.083l0,0c1.494,0,3,1.381,3,3.083V13.709z"/>
			<g>
				<path fill="none" stroke="#FFFFFF" stroke-linecap="round" stroke-miterlimit="10" d="M169,12.5h1.46
					c0,0,0.769,5.316,4.247,5.316"/>
				<path fill="none" stroke="#FFFFFF" stroke-linecap="round" stroke-miterlimit="10" d="M181,12.5h-1.842
					c0,0-0.577,5.316-4.057,5.316"/>
			</g>
			<path fill="#FFFFFF" d="M179,21.05c0,0.524-0.426,0.95-0.951,0.95h-6.098c-0.525,0-0.951-0.426-0.951-0.95v-0.1
				c0-0.524,0.426-0.95,0.951-0.95h6.098c0.525,0,0.951,0.426,0.951,0.95V21.05z"/>
			<line fill="none" stroke="#FFFFFF" stroke-linecap="round" stroke-miterlimit="10" x1="175.5" y1="18" x2="175.5" y2="20"/>
		</g>
		<rect x="106.666" y="8.99" fill="none" width="27.5" height="9.812"/>
		<text transform="matrix(1 0 0 1 106.667 17.5088)" fill="#FFFFFF" font-family="'MyriadPro-Regular'" font-size="12">0:57</text>
		<g>
			<circle fill="none" stroke="#FFFFFF" stroke-width="2" stroke-miterlimit="10" cx="152.882" cy="13.429" r="7.667"/>
			<rect x="150" y="11" fill="#FFFFFF" width="6" height="5"/>
		</g>
	</g>
</g>
<g id="chat">
</g>
<g id="logo" display="none">
</g>
<g id="Layer_7">
</g>
<g id="Layer_8">
</g>
<g id="Layer_9">
</g>
<g id="Layer_10">
</g>
<g id="Layer_11">
</g>
</svg>
