<?xml version="1.0" encoding="utf-8"?>
<!-- Generator: Adobe Illustrator 16.0.3, SVG Export Plug-In . SVG Version: 6.00 Build 0)  -->
<!DOCTYPE svg PUBLIC "-//W3C//DTD SVG 1.1//EN" "http://www.w3.org/Graphics/SVG/1.1/DTD/svg11.dtd">
<svg version="1.1" id="Layer_1" xmlns="http://www.w3.org/2000/svg" xmlns:xlink="http://www.w3.org/1999/xlink" x="0px" y="0px"
	 width="58px" height="42px" viewBox="0 0 58 42" enable-background="new 0 0 58 42" xml:space="preserve">
<g id="bg">
</g>
<g id="score_x2F_timeline">
</g>
<g id="camera">
</g>
<g id="menu">
	<g>
		<path fill="#FFFFFF" d="M30.909,7.451c-4.091,0-7.406,3.315-7.406,7.405c0,1.744,0.606,3.343,1.615,4.606
			c0.409,0.511,0.62,1.328,0.247,1.81c-0.266,0.345-0.558,0.58-0.874,0.623c-1.032,0.138,0.378,1.373,2.795,0.431
			c0.61-0.237,1.558-0.332,2.2-0.204c0.459,0.093,0.935,0.143,1.423,0.143c4.09,0,7.405-3.315,7.405-7.406
			C38.314,10.766,34.998,7.451,30.909,7.451z"/>
	</g>
</g>
<g id="chat">
</g>
<g id="logo" display="none">
</g>
<text transform="matrix(1 0 0 1 7.9531 35.8164)" fill="#FFFFFF" font-family="'Roboto-Regular'" font-size="12">Fantasy</text>
</svg>
