<?xml version="1.0" encoding="utf-8"?>
<!-- Generator: Adobe Illustrator 16.0.3, SVG Export Plug-In . SVG Version: 6.00 Build 0)  -->
<!DOCTYPE svg PUBLIC "-//W3C//DTD SVG 1.1//EN" "http://www.w3.org/Graphics/SVG/1.1/DTD/svg11.dtd">
<svg version="1.1" id="Layer_1" xmlns="http://www.w3.org/2000/svg" xmlns:xlink="http://www.w3.org/1999/xlink" x="0px" y="0px"
	 width="58px" height="42px" viewBox="0 0 58 42" enable-background="new 0 0 58 42" xml:space="preserve">
<g id="bg">
</g>
<g id="score_x2F_timeline">
</g>
<g id="camera">
</g>
<g id="chat">
</g>
<g id="logo" display="none">
</g>
<text transform="matrix(1 0 0 1 16.0054 36.6133)" fill="#FFFFFF" font-family="'RobotoCondensed-Regular'" font-size="11">Views</text>
<g>
	<path fill="#FFFFFF" d="M24.3,18.158c0.852,0.833,2.672,2.342,4.7,2.342c2.026,0,3.846-1.506,4.697-2.34
		C32.847,17.326,31.026,15.82,29,15.82C26.962,15.82,25.147,17.324,24.3,18.158z M31.082,18.16c0,1.15-0.933,2.083-2.082,2.083
		c-1.15,0-2.083-0.933-2.083-2.083c0-1.15,0.933-2.083,2.083-2.083C30.149,16.077,31.082,17.009,31.082,18.16z"/>
	<path fill="#FFFFFF" d="M27.765,18.16c0,0.681,0.555,1.234,1.235,1.234s1.235-0.554,1.235-1.234S29.681,16.925,29,16.925
		S27.765,17.479,27.765,18.16z"/>
	<path fill="#FFFFFF" d="M29,9.799c-4.617,0-8.36,3.743-8.36,8.361s3.743,8.36,8.36,8.36s8.36-3.742,8.36-8.36
		S33.617,9.799,29,9.799z M29,21.347c-3.237,0-5.862-3.188-5.862-3.188s2.625-3.187,5.862-3.187c3.236,0,5.861,3.187,5.861,3.187
		S32.236,21.347,29,21.347z"/>
</g>
</svg>
