<?xml version="1.0" encoding="utf-8"?>
<!-- Generator: Adobe Illustrator 16.0.3, SVG Export Plug-In . SVG Version: 6.00 Build 0)  -->
<!DOCTYPE svg PUBLIC "-//W3C//DTD SVG 1.1//EN" "http://www.w3.org/Graphics/SVG/1.1/DTD/svg11.dtd">
<svg version="1.1" id="Layer_1" xmlns="http://www.w3.org/2000/svg" xmlns:xlink="http://www.w3.org/1999/xlink" x="0px" y="0px"
	 width="58px" height="42px" viewBox="0 0 58 42" enable-background="new 0 0 58 42" xml:space="preserve">
<g id="bg">
</g>
<g id="score_x2F_timeline">
</g>
<g id="camera">
</g>
<g id="chat">
</g>
<g id="logo" display="none">
</g>
<path id="tv-11-icon_7_" fill="#FFFFFF" d="M36.5,11.5v9h-4v-1h2v-7h-11v7h2v1h-4v-9H36.5z M29.045,21.094
	c-0.338,0-0.613,0.275-0.613,0.612s0.275,0.612,0.613,0.612s0.613-0.275,0.613-0.612S29.383,21.094,29.045,21.094z M30.26,16.72
	l0.508-0.508c-0.438-0.438-1.045-0.71-1.713-0.71c-0.67,0-1.274,0.271-1.713,0.71l0.508,0.508c0.309-0.309,0.734-0.5,1.205-0.5
	C29.523,16.22,29.951,16.411,30.26,16.72z M26.438,15.311l0.52,0.521c0.537-0.536,1.277-0.868,2.096-0.868
	c0.818,0,1.56,0.332,2.094,0.868l0.521-0.521c-0.668-0.669-1.592-1.083-2.615-1.083C28.033,14.227,27.108,14.641,26.438,15.311z
	 M31.5,18.375V24.5h-5v-6.125C27.5,16.972,30.5,16.972,31.5,18.375z M28.51,18.956c0,0.308,0.25,0.557,0.557,0.557
	c0.309,0,0.558-0.25,0.558-0.557c0-0.308-0.25-0.558-0.558-0.558C28.76,18.398,28.51,18.647,28.51,18.956z M30.27,21.706
	c0-0.676-0.549-1.224-1.224-1.224c-0.676,0-1.225,0.548-1.225,1.224c0,0.676,0.549,1.224,1.225,1.224
	C29.721,22.93,30.27,22.382,30.27,21.706z"/>
<text transform="matrix(1 0 0 1 11.4346 37.0586)" fill="#FFFFFF" font-family="'RobotoCondensed-Regular'" font-size="11">Channel</text>
</svg>
