<?xml version="1.0" encoding="utf-8"?>
<!-- Generator: Adobe Illustrator 16.0.3, SVG Export Plug-In . SVG Version: 6.00 Build 0)  -->
<!DOCTYPE svg PUBLIC "-//W3C//DTD SVG 1.1//EN" "http://www.w3.org/Graphics/SVG/1.1/DTD/svg11.dtd">
<svg version="1.1" id="Layer_1" xmlns="http://www.w3.org/2000/svg" xmlns:xlink="http://www.w3.org/1999/xlink" x="0px" y="0px"
	 width="58px" height="42px" viewBox="0 0 58 42" enable-background="new 0 0 58 42" xml:space="preserve">
<g id="bg">
</g>
<g id="score_x2F_timeline">
</g>
<g id="camera">
</g>
<g id="chat">
</g>
<g id="logo" display="none">
</g>
<g>
	<g>
		<path fill="#FFFFFF" d="M29.001,22.344c1.735,0,2.831-0.66,3.351-1.071c-0.311-1.097-1.283-4.496-2.102-7.35
			c-0.678-2.365,1.43-4.357,1.43-4.357s-2.684,0.595-3.527,2.948c-0.969,2.702-1.938,6.753-2.51,8.78
			C26.188,21.707,27.296,22.344,29.001,22.344z"/>
		<path fill="#FFFFFF" d="M32.416,23.135c0.004-0.003,0.006-0.006,0.011-0.008C32.422,23.129,32.42,23.132,32.416,23.135z"/>
	</g>
	<g>
		<polygon fill="#FFFFFF" points="32.307,21.077 32.294,21.074 32.296,21.081 		"/>
		<path fill="#FFFFFF" d="M32.5,21.172v1.614c0,0-0.537,1.422-3.476,1.422c-2.937,0-3.524-1.422-3.524-1.422v-1.601
			c-2,0.438-2.884,1.159-2.884,1.974c0,1.337,2.851,2.421,6.449,2.421c3.598,0,6.375-1.084,6.375-2.421
			C35.439,22.337,34.5,21.609,32.5,21.172z"/>
		<path fill="#FFFFFF" d="M25.704,21.075c-0.009,0.002-0.018,0.004-0.028,0.005c0.011,0.003,0.015,0.004,0.024,0.008
			C25.701,21.084,25.703,21.079,25.704,21.075z"/>
	</g>
</g>
<text transform="matrix(1 0 0 1 12.0059 37.0586)" fill="#FFFFFF" font-family="'RobotoCondensed-Regular'" font-size="11">Fantasy</text>
</svg>
