<?xml version="1.0" encoding="utf-8"?>
<!-- Generator: Adobe Illustrator 16.0.3, SVG Export Plug-In . SVG Version: 6.00 Build 0)  -->
<!DOCTYPE svg PUBLIC "-//W3C//DTD SVG 1.1//EN" "http://www.w3.org/Graphics/SVG/1.1/DTD/svg11.dtd">
<svg version="1.1" id="Layer_1" xmlns="http://www.w3.org/2000/svg" xmlns:xlink="http://www.w3.org/1999/xlink" x="0px" y="0px"
	 width="58px" height="42px" viewBox="0 0 58 42" enable-background="new 0 0 58 42" xml:space="preserve">
<g id="bg">
</g>
<g id="score_x2F_timeline">
</g>
<g id="camera">
</g>
<g id="menu">
	<path id="tv-11-icon_1_" fill="#FFFFFF" d="M36.006,7.98v9.521h-3.677v-1.36h2.315V9.34h-11.29v6.801h2.366v1.36h-3.727V7.98
		H36.006z M29.046,18.056c-0.339,0-0.612,0.275-0.612,0.612s0.273,0.612,0.612,0.612c0.338,0,0.611-0.274,0.611-0.612
		S29.384,18.056,29.046,18.056z M30.261,13.682l0.508-0.508c-0.439-0.439-1.045-0.71-1.714-0.71c-0.67,0-1.275,0.271-1.714,0.71
		l0.508,0.508c0.309-0.309,0.733-0.5,1.206-0.5C29.524,13.182,29.952,13.373,30.261,13.682z M26.438,12.272l0.521,0.52
		c0.536-0.536,1.277-0.868,2.097-0.868c0.817,0,1.56,0.332,2.095,0.868l0.521-0.52c-0.669-0.669-1.595-1.084-2.615-1.084
		C28.032,11.189,27.107,11.603,26.438,12.272z M31.309,15.337v5.752h-4.567v-5.752C27.624,13.934,30.428,13.934,31.309,15.337z
		 M28.512,15.917c0,0.308,0.249,0.557,0.558,0.557c0.308,0,0.558-0.25,0.558-0.557c0-0.308-0.25-0.558-0.558-0.558
		C28.761,15.359,28.512,15.609,28.512,15.917z M30.27,18.668c0-0.676-0.549-1.224-1.225-1.224c-0.677,0-1.226,0.548-1.226,1.224
		s0.549,1.224,1.226,1.224C29.721,19.892,30.27,19.344,30.27,18.668z"/>
</g>
<g id="chat">
</g>
<g id="logo" display="none">
</g>
<text transform="matrix(1 0 0 1 4.1768 35.8164)" fill="#FFFFFF" font-family="'Roboto-Regular'" font-size="12">Channels</text>
</svg>
