<?xml version="1.0" encoding="utf-8"?>
<!-- Generator: Adobe Illustrator 16.0.3, SVG Export Plug-In . SVG Version: 6.00 Build 0)  -->
<!DOCTYPE svg PUBLIC "-//W3C//DTD SVG 1.1//EN" "http://www.w3.org/Graphics/SVG/1.1/DTD/svg11.dtd">
<svg version="1.1" id="Layer_1" xmlns="http://www.w3.org/2000/svg" xmlns:xlink="http://www.w3.org/1999/xlink" x="0px" y="0px"
	 width="58px" height="42px" viewBox="0 0 58 42" enable-background="new 0 0 58 42" xml:space="preserve">
<g id="bg">
</g>
<g id="score_x2F_timeline">
</g>
<g id="camera">
</g>
<g id="menu">
	<g>
		<g>
			<path fill="#FFFFFF" d="M33.018,20.134c1.734,0,2.83-0.66,3.349-1.071c-0.31-1.097-1.282-4.496-2.101-7.35
				c-0.678-2.365,1.428-4.357,1.428-4.357c0,0.001-2.682,0.596-3.525,2.949c-0.969,2.702-1.938,6.753-2.51,8.78
				C30.204,19.497,31.312,20.134,33.018,20.134z"/>
			<path fill="#FFFFFF" d="M36.432,20.926c0.004-0.003,0.008-0.007,0.012-0.009C36.438,20.919,36.436,20.923,36.432,20.926z"/>
		</g>
		<g>
			<polygon fill="#FFFFFF" points="36.323,18.868 36.311,18.865 36.312,18.871 			"/>
			<path fill="#FFFFFF" d="M36.729,18.963v1.614c0,0-0.774,1.422-3.711,1.422c-2.938,0-3.76-1.422-3.76-1.422v-1.601
				c-1.665,0.438-2.756,1.158-2.756,1.974c0,1.337,2.916,2.421,6.514,2.421c3.596,0,6.512-1.084,6.512-2.421
				C39.527,20.128,38.421,19.401,36.729,18.963z"/>
			<path fill="#FFFFFF" d="M29.721,18.866c-0.01,0.002-0.019,0.004-0.027,0.005c0.01,0.003,0.014,0.004,0.023,0.008
				C29.717,18.875,29.718,18.869,29.721,18.866z"/>
		</g>
	</g>
</g>
<g id="chat">
</g>
<g id="logo" display="none">
</g>
<text transform="matrix(1 0 0 1 16.5664 35.8164)" fill="#FFFFFF" font-family="'Roboto-Regular'" font-size="12">Chat</text>
</svg>
