<?xml version="1.0" encoding="utf-8"?>
<!-- Generator: Adobe Illustrator 16.0.3, SVG Export Plug-In . SVG Version: 6.00 Build 0)  -->
<!DOCTYPE svg PUBLIC "-//W3C//DTD SVG 1.1//EN" "http://www.w3.org/Graphics/SVG/1.1/DTD/svg11.dtd">
<svg version="1.1" id="Layer_1" xmlns="http://www.w3.org/2000/svg" xmlns:xlink="http://www.w3.org/1999/xlink" x="0px" y="0px"
	 width="58px" height="42px" viewBox="0 0 58 42" enable-background="new 0 0 58 42" xml:space="preserve">
<g id="bg">
</g>
<g id="score_x2F_timeline">
</g>
<g id="camera">
</g>
<g id="chat">
</g>
<g id="logo" display="none">
</g>
<path id="bar_chart_6_icon_7_" fill="#FFFFFF" d="M32.885,12.066l1.164,1.163l-0.594,0.58l-1.168-1.167L32.885,12.066z
	 M31.785,13.124l-0.615,0.592l1.176,1.177l0.611-0.597L31.785,13.124z M22.5,24.5h3v-3h-3V24.5z M32.729,10.923l2.443,2.444
	l0.568-2.965L32.729,10.923z M31.5,24.5h4v-7h-4V24.5z M31.848,15.378l-1.182-1.181l-1.892,1.819l-1.666-1.575l-4.665,4.647
	l1.147,1.129l3.47-3.468l1.718,1.625L31.848,15.378z M27.5,24.5h3v-5h-3V24.5z"/>
<text transform="matrix(1 0 0 1 17.7607 37.0586)" fill="#FFFFFF" font-family="'RobotoCondensed-Regular'" font-size="11">Stats</text>
</svg>
